<svg xmlns="http://www.w3.org/2000/svg" viewBox="0 0 1800 2800" font-family="system-ui, -apple-system, sans-serif">
  <defs>
    <linearGradient id="bgGrad" x1="0" y1="0" x2="0" y2="1">
      <stop offset="0%" stop-color="#F9FAFB"/>
      <stop offset="100%" stop-color="#EFF6FF"/>
    </linearGradient>
    <linearGradient id="blueGrad" x1="0" y1="0" x2="1" y2="1">
      <stop offset="0%" stop-color="#60A5FA"/>
      <stop offset="100%" stop-color="#1D4ED8"/>
    </linearGradient>
    <linearGradient id="greenGrad" x1="0" y1="0" x2="1" y2="1">
      <stop offset="0%" stop-color="#4ADE80"/>
      <stop offset="100%" stop-color="#16A34A"/>
    </linearGradient>
    <linearGradient id="amberGrad" x1="0" y1="0" x2="1" y2="1">
      <stop offset="0%" stop-color="#FCD34D"/>
      <stop offset="100%" stop-color="#D97706"/>
    </linearGradient>
    <linearGradient id="redGrad" x1="0" y1="0" x2="1" y2="1">
      <stop offset="0%" stop-color="#FCA5A5"/>
      <stop offset="100%" stop-color="#EF4444"/>
    </linearGradient>
    <filter id="shadow">
      <feDropShadow dx="0" dy="2" stdDeviation="4" flood-opacity="0.08"/>
    </filter>
    <filter id="shadowLg">
      <feDropShadow dx="0" dy="4" stdDeviation="8" flood-opacity="0.12"/>
    </filter>
  </defs>

  <!-- Background -->
  <rect width="1800" height="2800" fill="url(#bgGrad)"/>

  <!-- Title -->
  <text x="900" y="60" text-anchor="middle" font-size="32" font-weight="700" fill="#111827">Payment Flow — Complete System</text>
  <text x="900" y="90" text-anchor="middle" font-size="16" fill="#6B7280">SMART AI REFERRALS — Eliv Platform</text>

  <!-- ============================================= -->
  <!-- FRAME 1: FLOW OVERVIEW (State Machine) -->
  <!-- ============================================= -->
  <rect x="40" y="120" width="1720" height="420" rx="16" fill="white" stroke="#E5E7EB" filter="url(#shadow)"/>
  <text x="80" y="160" font-size="20" font-weight="700" fill="#111827">1. Payment Flow Overview</text>
  <text x="80" y="182" font-size="13" fill="#6B7280">Two separate payment flows: Business → Platform, and Platform → Users</text>

  <!-- Flow A: Business pays Platform -->
  <text x="120" y="220" font-size="15" font-weight="600" fill="#1D4ED8">Flow A: Business → Platform (Charges)</text>

  <!-- OWED box -->
  <rect x="120" y="240" width="130" height="50" rx="10" fill="#FEF2F2" stroke="#EF4444" stroke-width="1.5"/>
  <text x="185" y="262" text-anchor="middle" font-size="13" font-weight="600" fill="#EF4444">OWED</text>
  <text x="185" y="278" text-anchor="middle" font-size="10" fill="#9CA3AF">Pending</text>

  <!-- Arrow -->
  <line x1="250" y1="265" x2="310" y2="265" stroke="#9CA3AF" stroke-width="1.5" marker-end="url(#arrow)"/>
  <text x="280" y="258" text-anchor="middle" font-size="9" fill="#6B7280">Partial Pay</text>

  <!-- PARTIAL box -->
  <rect x="310" y="240" width="130" height="50" rx="10" fill="#FFFBEB" stroke="#F59E0B" stroke-width="1.5"/>
  <text x="375" y="262" text-anchor="middle" font-size="13" font-weight="600" fill="#D97706">PARTIAL</text>
  <text x="375" y="278" text-anchor="middle" font-size="10" fill="#9CA3AF">In progress</text>

  <!-- Arrow -->
  <line x1="440" y1="265" x2="500" y2="265" stroke="#9CA3AF" stroke-width="1.5"/>
  <polygon points="498,261 506,265 498,269" fill="#9CA3AF"/>
  <text x="470" y="258" text-anchor="middle" font-size="9" fill="#6B7280">Full Pay</text>

  <!-- PAID box -->
  <rect x="500" y="240" width="130" height="50" rx="10" fill="#F0FDF4" stroke="#22C55E" stroke-width="1.5"/>
  <text x="565" y="262" text-anchor="middle" font-size="13" font-weight="600" fill="#16A34A">PAID</text>
  <text x="565" y="278" text-anchor="middle" font-size="10" fill="#9CA3AF">Complete</text>

  <!-- Direct full pay arrow -->
  <path d="M185,290 Q185,320 375,320 Q565,320 565,290" fill="none" stroke="#22C55E" stroke-width="1" stroke-dasharray="4"/>
  <text x="375" y="336" text-anchor="middle" font-size="9" fill="#16A34A">Mark Paid (full amount)</text>

  <!-- Void arrow back -->
  <path d="M530,240 Q530,210 375,210 Q220,210 155,240" fill="none" stroke="#EF4444" stroke-width="1" stroke-dasharray="4"/>
  <polygon points="157,238 150,240 155,245" fill="#EF4444"/>
  <text x="375" y="206" text-anchor="middle" font-size="9" fill="#EF4444">Void Payment → recalculate</text>

  <!-- Flow B: Platform pays Users -->
  <text x="120" y="390" font-size="15" font-weight="600" fill="#16A34A">Flow B: Platform → Users (Payouts)</text>

  <!-- Visit Converted -->
  <rect x="120" y="410" width="140" height="50" rx="10" fill="#EFF6FF" stroke="#3B82F6" stroke-width="1.5"/>
  <text x="190" y="432" text-anchor="middle" font-size="12" font-weight="600" fill="#1D4ED8">Visit Converted</text>
  <text x="190" y="448" text-anchor="middle" font-size="10" fill="#9CA3AF">Earning created</text>

  <!-- Arrow -->
  <line x1="260" y1="435" x2="310" y2="435" stroke="#9CA3AF" stroke-width="1.5"/>
  <polygon points="308,431 316,435 308,439" fill="#9CA3AF"/>

  <!-- PENDING -->
  <rect x="316" y="410" width="120" height="50" rx="10" fill="#FFFBEB" stroke="#F59E0B" stroke-width="1.5"/>
  <text x="376" y="432" text-anchor="middle" font-size="12" font-weight="600" fill="#D97706">PENDING</text>
  <text x="376" y="448" text-anchor="middle" font-size="10" fill="#9CA3AF">Not yet paid</text>

  <!-- Arrow -->
  <line x1="436" y1="435" x2="486" y2="435" stroke="#9CA3AF" stroke-width="1.5"/>
  <polygon points="484,431 492,435 484,439" fill="#9CA3AF"/>
  <text x="460" y="428" text-anchor="middle" font-size="9" fill="#6B7280">Admin</text>

  <!-- APPROVED -->
  <rect x="492" y="410" width="120" height="50" rx="10" fill="#EFF6FF" stroke="#3B82F6" stroke-width="1.5"/>
  <text x="552" y="432" text-anchor="middle" font-size="12" font-weight="600" fill="#1D4ED8">APPROVED</text>
  <text x="552" y="448" text-anchor="middle" font-size="10" fill="#9CA3AF">Available to cash out</text>

  <!-- Note: manual approval -->
  <text x="552" y="478" text-anchor="middle" font-size="9" fill="#6B7280" font-style="italic">(admin approves after business pays)</text>

  <!-- Arrow -->
  <line x1="612" y1="435" x2="662" y2="435" stroke="#9CA3AF" stroke-width="1.5"/>
  <polygon points="660,431 668,435 660,439" fill="#9CA3AF"/>
  <text x="636" y="428" text-anchor="middle" font-size="9" fill="#6B7280">$50+</text>

  <!-- REQUESTED -->
  <rect x="668" y="410" width="120" height="50" rx="10" fill="#DBEAFE" stroke="#3B82F6" stroke-width="1.5"/>
  <text x="728" y="432" text-anchor="middle" font-size="12" font-weight="600" fill="#1D4ED8">REQUESTED</text>
  <text x="728" y="448" text-anchor="middle" font-size="10" fill="#9CA3AF">User cashout</text>

  <!-- Arrow -->
  <line x1="788" y1="435" x2="838" y2="435" stroke="#9CA3AF" stroke-width="1.5"/>
  <polygon points="836,431 844,435 836,439" fill="#9CA3AF"/>
  <text x="812" y="428" text-anchor="middle" font-size="9" fill="#6B7280">Admin pays</text>

  <!-- PAID -->
  <rect x="844" y="410" width="120" height="50" rx="10" fill="#F0FDF4" stroke="#22C55E" stroke-width="1.5"/>
  <text x="904" y="432" text-anchor="middle" font-size="12" font-weight="600" fill="#16A34A">PAID</text>
  <text x="904" y="448" text-anchor="middle" font-size="10" fill="#9CA3AF">Money sent</text>

  <!-- Rejected branch -->
  <line x1="728" y1="460" x2="728" y2="500" stroke="#EF4444" stroke-width="1" stroke-dasharray="4"/>
  <rect x="668" y="500" width="120" height="30" rx="8" fill="#FEF2F2" stroke="#EF4444" stroke-width="1"/>
  <text x="728" y="520" text-anchor="middle" font-size="11" font-weight="600" fill="#EF4444">REJECTED</text>
  <text x="728" y="545" text-anchor="middle" font-size="9" fill="#6B7280">(fraud suspected)</text>

  <!-- Data model summary on right -->
  <rect x="1050" y="200" width="660" height="310" rx="12" fill="#F9FAFB" stroke="#E5E7EB"/>
  <text x="1080" y="228" font-size="14" font-weight="700" fill="#111827">Data Model</text>

  <text x="1080" y="256" font-size="12" font-weight="600" fill="#1D4ED8">charges (Business owes Platform)</text>
  <text x="1100" y="274" font-size="11" fill="#4B5563" font-family="monospace">businessId, amount, platformAmount</text>
  <text x="1100" y="290" font-size="11" fill="#4B5563" font-family="monospace">status: OWED | PARTIAL | PAID | VOID</text>
  <text x="1100" y="306" font-size="11" fill="#4B5563" font-family="monospace">paidAmount: number</text>

  <text x="1080" y="334" font-size="12" font-weight="600" fill="#D97706">charge_payments (Payment records)</text>
  <text x="1100" y="352" font-size="11" fill="#4B5563" font-family="monospace">chargeId, amount, method, status</text>
  <text x="1100" y="368" font-size="11" fill="#4B5563" font-family="monospace">method: CASH | TRANSFER | ZELLE | CHECK</text>

  <text x="1080" y="396" font-size="12" font-weight="600" fill="#16A34A">earnings (User commissions/rewards)</text>
  <text x="1100" y="414" font-size="11" fill="#4B5563" font-family="monospace">userId, amount, type, status</text>
  <text x="1100" y="430" font-size="11" fill="#4B5563" font-family="monospace">type: REFERRER_COMMISSION | CONSUMER_REWARD</text>
  <text x="1100" y="446" font-size="11" fill="#4B5563" font-family="monospace">status: PENDING → APPROVED (admin) → PAID</text>

  <text x="1080" y="458" font-size="12" font-weight="600" fill="#7C3AED">payout_requests (User cashout requests)</text>
  <text x="1100" y="476" font-size="11" fill="#4B5563" font-family="monospace">userId, amount, earningIds[], status</text>
  <text x="1100" y="492" font-size="11" fill="#4B5563" font-family="monospace">status: REQUESTED | COMPLETED | REJECTED</text>


  <!-- ============================================= -->
  <!-- FRAME 2: ADMIN — Business Charges View -->
  <!-- ============================================= -->
  <rect x="40" y="560" width="840" height="700" rx="16" fill="white" stroke="#E5E7EB" filter="url(#shadow)"/>
  <text x="80" y="600" font-size="20" font-weight="700" fill="#111827">2. Admin — Revenue by Business</text>
  <text x="80" y="622" font-size="13" fill="#6B7280">Filter tabs + business cards + charge details</text>

  <!-- Filter tabs -->
  <rect x="80" y="640" width="140" height="32" rx="8" fill="url(#blueGrad)"/>
  <text x="150" y="661" text-anchor="middle" font-size="12" font-weight="600" fill="white">All Businesses (4)</text>
  <rect x="228" y="640" width="110" height="32" rx="8" fill="white" stroke="#E5E7EB"/>
  <text x="283" y="661" text-anchor="middle" font-size="12" font-weight="500" fill="#4B5563">Pending (2)</text>
  <rect x="346" y="640" width="90" height="32" rx="8" fill="white" stroke="#E5E7EB"/>
  <text x="391" y="661" text-anchor="middle" font-size="12" font-weight="500" fill="#4B5563">Paid (2)</text>

  <!-- Business cards row -->
  <!-- Card 1 - has debt -->
  <rect x="80" y="690" width="160" height="140" rx="12" fill="white" stroke="#3B82F6" stroke-width="2" filter="url(#shadow)"/>
  <rect x="130" y="705" width="60" height="60" rx="12" fill="#DBEAFE"/>
  <text x="160" y="742" text-anchor="middle" font-size="20" fill="#3B82F6">N</text>
  <text x="160" y="785" text-anchor="middle" font-size="12" font-weight="600" fill="#111827">NoxFit</text>
  <text x="160" y="803" text-anchor="middle" font-size="16" font-weight="700" fill="#111827">$108.00</text>
  <text x="160" y="818" text-anchor="middle" font-size="10" fill="#EF4444" font-weight="600">Owes: $40.00</text>

  <!-- Card 2 - fully paid -->
  <rect x="252" y="690" width="160" height="140" rx="12" fill="white" stroke="#E5E7EB" filter="url(#shadow)"/>
  <rect x="302" y="705" width="60" height="60" rx="12" fill="#F0FDF4"/>
  <text x="332" y="742" text-anchor="middle" font-size="20" fill="#22C55E">E</text>
  <text x="332" y="785" text-anchor="middle" font-size="12" font-weight="600" fill="#111827">ELEVATE AI</text>
  <text x="332" y="803" text-anchor="middle" font-size="16" font-weight="700" fill="#111827">$220.00</text>
  <text x="332" y="818" text-anchor="middle" font-size="10" fill="#22C55E" font-weight="600">Paid: $220.00 ✓</text>

  <!-- Summary bar -->
  <rect x="80" y="850" width="760" height="44" rx="8" fill="#F9FAFB" stroke="#E5E7EB"/>
  <text x="100" y="877" font-size="12" font-weight="600" fill="#111827">3 charges</text>
  <text x="200" y="877" font-size="12" fill="#4B5563">Total: $108.00</text>
  <text x="330" y="877" font-size="12" fill="#22C55E">Paid: $68.00</text>
  <text x="450" y="877" font-size="12" fill="#EF4444">Owed: $40.00</text>
  <!-- Progress bar -->
  <rect x="570" y="867" width="100" height="8" rx="4" fill="#E5E7EB"/>
  <rect x="570" y="867" width="63" height="8" rx="4" fill="#22C55E"/>
  <text x="680" y="877" font-size="11" fill="#6B7280">63%</text>
  <!-- Pay All -->
  <rect x="710" y="856" width="80" height="30" rx="8" fill="url(#blueGrad)"/>
  <text x="750" y="876" text-anchor="middle" font-size="11" font-weight="600" fill="white">Pay All</text>

  <!-- Charge row 1 - OWED with actions -->
  <rect x="80" y="905" width="760" height="80" rx="10" fill="white" stroke="#E5E7EB"/>
  <circle cx="100" cy="935" r="5" fill="#EF4444"/>
  <text x="115" y="930" font-size="12" font-weight="600" fill="#111827">Charge #A1B2C3D</text>
  <rect x="225" y="919" width="52" height="20" rx="10" fill="#FEF2F2"/>
  <text x="251" y="933" text-anchor="middle" font-size="10" font-weight="600" fill="#EF4444">OWED</text>
  <text x="115" y="948" font-size="10" fill="#6B7280">Mar 4, 2026 · Via: Promoter · New Customer</text>
  <text x="115" y="968" font-size="10" fill="#9CA3AF">Total: $100.00  Promoter: $30.00  Reward: $30.00</text>
  <!-- Amount + buttons -->
  <text x="680" y="930" text-anchor="end" font-size="16" font-weight="700" fill="#EF4444">$40.00</text>
  <text x="680" y="946" text-anchor="end" font-size="10" fill="#EF4444">Remaining: $40.00</text>
  <rect x="700" y="920" width="65" height="24" rx="6" fill="url(#blueGrad)"/>
  <text x="732" y="936" text-anchor="middle" font-size="10" font-weight="600" fill="white">Mark Paid</text>
  <rect x="770" y="920" width="55" height="24" rx="6" fill="white" stroke="#3B82F6"/>
  <text x="797" y="936" text-anchor="middle" font-size="10" font-weight="500" fill="#3B82F6">Partial</text>
  <text x="780" y="968" text-anchor="middle" font-size="10" fill="#6B7280">▾ History</text>

  <!-- Charge row 2 - PAID -->
  <rect x="80" y="995" width="760" height="65" rx="10" fill="white" stroke="#E5E7EB"/>
  <circle cx="100" cy="1025" r="5" fill="#22C55E"/>
  <text x="115" y="1022" font-size="12" font-weight="600" fill="#111827">Charge #D4E5F6G</text>
  <rect x="225" y="1010" width="46" height="20" rx="10" fill="#F0FDF4"/>
  <text x="248" y="1024" text-anchor="middle" font-size="10" font-weight="600" fill="#16A34A">PAID</text>
  <text x="115" y="1040" font-size="10" fill="#6B7280">Mar 9, 2026 — Paid Mar 19, 2026</text>
  <text x="680" y="1025" text-anchor="end" font-size="16" font-weight="700" fill="#22C55E">$60.00</text>
  <text x="680" y="1041" text-anchor="end" font-size="10" fill="#22C55E">Paid</text>
  <text x="780" y="1045" text-anchor="middle" font-size="10" fill="#6B7280">▾ History</text>

  <!-- Charge row 3 - PARTIAL -->
  <rect x="80" y="1070" width="760" height="80" rx="10" fill="white" stroke="#E5E7EB"/>
  <circle cx="100" cy="1100" r="5" fill="#F59E0B"/>
  <text x="115" y="1097" font-size="12" font-weight="600" fill="#111827">Charge #H7I8J9K</text>
  <rect x="225" y="1085" width="65" height="20" rx="10" fill="#FFFBEB"/>
  <text x="257" y="1099" text-anchor="middle" font-size="10" font-weight="600" fill="#D97706">PARTIAL</text>
  <text x="115" y="1115" font-size="10" fill="#6B7280">Mar 5, 2026 · Via: Platform</text>
  <!-- Progress bar -->
  <rect x="115" y="1128" width="80" height="5" rx="3" fill="#E5E7EB"/>
  <rect x="115" y="1128" width="40" height="5" rx="3" fill="#F59E0B"/>
  <text x="200" y="1135" font-size="9" fill="#9CA3AF">50%</text>
  <text x="680" y="1097" text-anchor="end" font-size="16" font-weight="700" fill="#D97706">$20.00</text>
  <text x="680" y="1113" text-anchor="end" font-size="10" fill="#EF4444">Remaining: $10.00</text>
  <rect x="700" y="1088" width="65" height="24" rx="6" fill="url(#blueGrad)"/>
  <text x="732" y="1104" text-anchor="middle" font-size="10" font-weight="600" fill="white">Mark Paid</text>
  <rect x="770" y="1088" width="55" height="24" rx="6" fill="white" stroke="#3B82F6"/>
  <text x="797" y="1104" text-anchor="middle" font-size="10" font-weight="500" fill="#3B82F6">Partial</text>


  <!-- ============================================= -->
  <!-- FRAME 3: INLINE PAYMENT FORM -->
  <!-- ============================================= -->
  <rect x="920" y="560" width="840" height="340" rx="16" fill="white" stroke="#E5E7EB" filter="url(#shadow)"/>
  <text x="960" y="600" font-size="20" font-weight="700" fill="#111827">3. Inline Payment Form</text>
  <text x="960" y="622" font-size="13" fill="#6B7280">Expands below each charge (no modal)</text>

  <!-- Form area with muted bg -->
  <rect x="950" y="640" width="780" height="240" rx="10" fill="#F9FAFB" stroke="#E5E7EB"/>
  <text x="975" y="668" font-size="14" font-weight="600" fill="#111827">Register Payment</text>

  <!-- Amount field -->
  <text x="975" y="698" font-size="11" fill="#4B5563">Amount</text>
  <rect x="975" y="704" width="120" height="34" rx="8" fill="white" stroke="#E5E7EB"/>
  <text x="990" y="726" font-size="13" fill="#111827">40.00</text>
  <!-- Quick % buttons -->
  <rect x="975" y="744" width="32" height="18" rx="4" fill="#E5E7EB"/>
  <text x="991" y="757" text-anchor="middle" font-size="9" fill="#4B5563">25%</text>
  <rect x="1012" y="744" width="32" height="18" rx="4" fill="#E5E7EB"/>
  <text x="1028" y="757" text-anchor="middle" font-size="9" fill="#4B5563">50%</text>
  <rect x="1049" y="744" width="32" height="18" rx="4" fill="#E5E7EB"/>
  <text x="1065" y="757" text-anchor="middle" font-size="9" fill="#4B5563">75%</text>
  <rect x="1086" y="744" width="36" height="18" rx="4" fill="#DBEAFE"/>
  <text x="1104" y="757" text-anchor="middle" font-size="9" font-weight="600" fill="#1D4ED8">100%</text>

  <!-- Method dropdown -->
  <text x="1120" y="698" font-size="11" fill="#4B5563">Method</text>
  <rect x="1120" y="704" width="130" height="34" rx="8" fill="white" stroke="#E5E7EB"/>
  <text x="1135" y="726" font-size="13" fill="#111827">Transfer ▾</text>

  <!-- Note field -->
  <text x="1270" y="698" font-size="11" fill="#4B5563">Note</text>
  <rect x="1270" y="704" width="260" height="34" rx="8" fill="white" stroke="#E5E7EB"/>
  <text x="1285" y="726" font-size="13" fill="#9CA3AF">Optional note...</text>

  <!-- Save button -->
  <rect x="1555" y="704" width="70" height="34" rx="8" fill="url(#blueGrad)"/>
  <text x="1590" y="726" text-anchor="middle" font-size="12" font-weight="600" fill="white">Save</text>
  <rect x="1630" y="704" width="34" height="34" rx="8" fill="white" stroke="#E5E7EB"/>
  <text x="1647" y="726" text-anchor="middle" font-size="14" fill="#9CA3AF">✕</text>

  <!-- Method options note -->
  <text x="975" y="800" font-size="12" font-weight="600" fill="#111827">Payment Methods Available:</text>
  <rect x="975" y="812" width="60" height="22" rx="6" fill="#F0FDF4" stroke="#22C55E" stroke-width="0.5"/>
  <text x="1005" y="828" text-anchor="middle" font-size="10" fill="#16A34A">Cash</text>
  <rect x="1045" y="812" width="72" height="22" rx="6" fill="#EFF6FF" stroke="#3B82F6" stroke-width="0.5"/>
  <text x="1081" y="828" text-anchor="middle" font-size="10" fill="#1D4ED8">Transfer</text>
  <rect x="1127" y="812" width="52" height="22" rx="6" fill="#FFFBEB" stroke="#F59E0B" stroke-width="0.5"/>
  <text x="1153" y="828" text-anchor="middle" font-size="10" fill="#D97706">Zelle</text>
  <rect x="1189" y="812" width="56" height="22" rx="6" fill="#F9FAFB" stroke="#E5E7EB"/>
  <text x="1217" y="828" text-anchor="middle" font-size="10" fill="#4B5563">Check</text>
  <rect x="1255" y="812" width="56" height="22" rx="6" fill="#F9FAFB" stroke="#E5E7EB"/>
  <text x="1283" y="828" text-anchor="middle" font-size="10" fill="#4B5563">Other</text>


  <!-- ============================================= -->
  <!-- FRAME 4: PAYMENT HISTORY + VOID -->
  <!-- ============================================= -->
  <rect x="920" y="920" width="840" height="340" rx="16" fill="white" stroke="#E5E7EB" filter="url(#shadow)"/>
  <text x="960" y="960" font-size="20" font-weight="700" fill="#111827">4. Payment History + Void</text>
  <text x="960" y="982" font-size="13" fill="#6B7280">Expandable per charge, with void option</text>

  <!-- History area -->
  <rect x="950" y="1000" width="780" height="240" rx="10" fill="#F3F4F6" stroke="#E5E7EB"/>

  <!-- Payment row 1 -->
  <rect x="970" y="1015" width="740" height="36" rx="6" fill="white"/>
  <text x="990" y="1038" font-size="11" fill="#6B7280">Mar 15, 2026</text>
  <text x="1110" y="1038" font-size="12" font-weight="600" fill="#111827">$10.00</text>
  <rect x="1180" y="1023" width="62" height="20" rx="10" fill="#F9FAFB" stroke="#E5E7EB"/>
  <text x="1211" y="1037" text-anchor="middle" font-size="9" fill="#4B5563">TRANSFER</text>
  <text x="1270" y="1038" font-size="11" fill="#9CA3AF">Partial payment</text>
  <rect x="1630" y="1023" width="50" height="20" rx="6" fill="white" stroke="#EF4444" stroke-width="0.5"/>
  <text x="1655" y="1037" text-anchor="middle" font-size="10" fill="#EF4444">Void</text>

  <!-- Payment row 2 -->
  <rect x="970" y="1060" width="740" height="36" rx="6" fill="white"/>
  <text x="990" y="1083" font-size="11" fill="#6B7280">Mar 19, 2026</text>
  <text x="1110" y="1083" font-size="12" font-weight="600" fill="#111827">$30.00</text>
  <rect x="1180" y="1068" width="50" height="20" rx="10" fill="#F9FAFB" stroke="#E5E7EB"/>
  <text x="1205" y="1082" text-anchor="middle" font-size="9" fill="#4B5563">ZELLE</text>
  <text x="1270" y="1083" font-size="11" fill="#9CA3AF">Final payment</text>
  <rect x="1630" y="1068" width="50" height="20" rx="6" fill="white" stroke="#EF4444" stroke-width="0.5"/>
  <text x="1655" y="1082" text-anchor="middle" font-size="10" fill="#EF4444">Void</text>

  <!-- Payment row 3 - voided -->
  <rect x="970" y="1105" width="740" height="36" rx="6" fill="white" opacity="0.5"/>
  <text x="990" y="1128" font-size="11" fill="#9CA3AF" text-decoration="line-through">Mar 10, 2026</text>
  <text x="1110" y="1128" font-size="12" font-weight="600" fill="#9CA3AF" text-decoration="line-through">$20.00</text>
  <rect x="1180" y="1113" width="46" height="20" rx="10" fill="#F9FAFB" stroke="#E5E7EB"/>
  <text x="1203" y="1127" text-anchor="middle" font-size="9" fill="#9CA3AF">CASH</text>
  <text x="1630" y="1128" font-size="10" fill="#9CA3AF">Voided</text>

  <!-- Toast notifications -->
  <rect x="970" y="1165" width="200" height="36" rx="8" fill="#F0FDF4" stroke="#22C55E" stroke-width="0.5"/>
  <text x="990" y="1182" font-size="10" font-weight="600" fill="#16A34A">✓ Payment registered</text>
  <text x="990" y="1195" font-size="9" fill="#6B7280">Toast confirmation</text>

  <rect x="1190" y="1165" width="180" height="36" rx="8" fill="#FEF2F2" stroke="#EF4444" stroke-width="0.5"/>
  <text x="1210" y="1182" font-size="10" font-weight="600" fill="#EF4444">✓ Payment voided</text>
  <text x="1210" y="1195" font-size="9" fill="#6B7280">Toast confirmation</text>


  <!-- ============================================= -->
  <!-- FRAME 5: USER CASHOUT PAGE -->
  <!-- ============================================= -->
  <rect x="40" y="1280" width="840" height="700" rx="16" fill="white" stroke="#E5E7EB" filter="url(#shadow)"/>
  <text x="80" y="1320" font-size="20" font-weight="700" fill="#111827">5. User — Cashout Page</text>
  <text x="80" y="1342" font-size="13" fill="#6B7280">Promoters/customers request cashout when $50+ available</text>

  <!-- Header gradient -->
  <rect x="80" y="1360" width="760" height="80" rx="12" fill="url(#blueGrad)"/>
  <text x="110" y="1390" font-size="10" fill="rgba(255,255,255,0.8)">← Back to Visits</text>
  <text x="110" y="1418" font-size="22" font-weight="700" fill="white">Cash Out</text>
  <text x="110" y="1435" font-size="11" fill="rgba(255,255,255,0.7)">Withdraw your earnings to your bank account</text>

  <!-- Balance cards -->
  <rect x="80" y="1460" width="370" height="100" rx="12" fill="white" stroke="#E5E7EB" filter="url(#shadow)"/>
  <rect x="100" y="1480" width="40" height="40" rx="8" fill="#F0FDF4"/>
  <text x="120" y="1506" text-anchor="middle" font-size="18" fill="#22C55E">$</text>
  <text x="155" y="1498" font-size="11" fill="#6B7280">Available Balance</text>
  <text x="155" y="1530" font-size="28" font-weight="700" fill="#111827">$75.00</text>
  <text x="155" y="1548" font-size="10" fill="#9CA3AF">Already cashed out: $50.00</text>

  <rect x="470" y="1460" width="370" height="100" rx="12" fill="white" stroke="#E5E7EB" filter="url(#shadow)"/>
  <rect x="490" y="1480" width="40" height="40" rx="8" fill="#FFFBEB"/>
  <text x="510" y="1506" text-anchor="middle" font-size="18" fill="#F59E0B">⏳</text>
  <text x="545" y="1498" font-size="11" fill="#6B7280">Pending Balance</text>
  <text x="545" y="1530" font-size="28" font-weight="700" fill="#111827">$25.00</text>

  <!-- Request Cashout section -->
  <rect x="80" y="1580" width="760" height="120" rx="12" fill="white" stroke="#E5E7EB" filter="url(#shadow)"/>
  <rect x="100" y="1600" width="40" height="40" rx="8" fill="#DBEAFE"/>
  <text x="120" y="1626" text-anchor="middle" font-size="18" fill="#3B82F6">💳</text>
  <text x="155" y="1618" font-size="14" font-weight="600" fill="#111827">Request Cashout</text>
  <text x="155" y="1636" font-size="11" fill="#6B7280">Minimum $50.00 required</text>
  <!-- Button -->
  <rect x="100" y="1660" width="720" height="28" rx="8" fill="url(#blueGrad)"/>
  <text x="460" y="1679" text-anchor="middle" font-size="12" font-weight="600" fill="white">Request Cashout — $75.00</text>

  <!-- Disabled states -->
  <rect x="80" y="1720" width="370" height="60" rx="10" fill="#FFFBEB" stroke="#F59E0B" stroke-width="0.5"/>
  <text x="100" y="1742" font-size="11" fill="#D97706">⚠ When balance &lt; $50:</text>
  <text x="100" y="1760" font-size="10" fill="#6B7280">"You need $X more to cash out"</text>

  <rect x="470" y="1720" width="370" height="60" rx="10" fill="#FFFBEB" stroke="#F59E0B" stroke-width="0.5"/>
  <text x="490" y="1742" font-size="11" fill="#D97706">⚠ When pending request exists:</text>
  <text x="490" y="1760" font-size="10" fill="#6B7280">"You already have a pending cashout request"</text>

  <!-- Payout history -->
  <rect x="80" y="1800" width="760" height="160" rx="12" fill="white" stroke="#E5E7EB" filter="url(#shadow)"/>
  <text x="110" y="1830" font-size="14" font-weight="600" fill="#111827">Payout History</text>

  <rect x="100" y="1846" width="720" height="40" rx="8" fill="white" stroke="#E5E7EB"/>
  <text x="120" y="1866" font-size="12" font-weight="600" fill="#111827">$75.00</text>
  <text x="120" y="1880" font-size="9" fill="#6B7280">Mar 23, 2026</text>
  <rect x="710" y="1856" width="80" height="20" rx="10" fill="#FFFBEB"/>
  <text x="750" y="1870" text-anchor="middle" font-size="10" font-weight="600" fill="#D97706">Requested</text>

  <rect x="100" y="1896" width="720" height="40" rx="8" fill="white" stroke="#E5E7EB"/>
  <text x="120" y="1916" font-size="12" font-weight="600" fill="#111827">$50.00</text>
  <text x="120" y="1930" font-size="9" fill="#6B7280">Mar 10, 2026 — Completed Mar 12 · Via: Transfer</text>
  <rect x="710" y="1906" width="80" height="20" rx="10" fill="#F0FDF4"/>
  <text x="750" y="1920" text-anchor="middle" font-size="10" font-weight="600" fill="#16A34A">Completed</text>


  <!-- ============================================= -->
  <!-- FRAME 6: ADMIN PAYOUTS TAB -->
  <!-- ============================================= -->
  <rect x="920" y="1280" width="840" height="700" rx="16" fill="white" stroke="#E5E7EB" filter="url(#shadow)"/>
  <text x="960" y="1320" font-size="20" font-weight="700" fill="#111827">6. Admin — Payouts Tab</text>
  <text x="960" y="1342" font-size="13" fill="#6B7280">Approve earnings + process cashout requests</text>

  <!-- Tab bar -->
  <rect x="950" y="1360" width="780" height="36" rx="8" fill="#F3F4F6"/>
  <text x="975" y="1383" font-size="11" fill="#6B7280">Businesses</text>
  <text x="1060" y="1383" font-size="11" fill="#6B7280">Promoters</text>
  <text x="1145" y="1383" font-size="11" fill="#6B7280">Users</text>
  <text x="1200" y="1383" font-size="11" fill="#6B7280">Visits</text>
  <text x="1260" y="1383" font-size="11" fill="#6B7280">Support</text>
  <rect x="1330" y="1364" width="80" height="28" rx="6" fill="white" stroke="#3B82F6" stroke-width="1.5"/>
  <text x="1370" y="1383" text-anchor="middle" font-size="11" font-weight="600" fill="#1D4ED8">Payouts</text>
  <rect x="1348" y="1362" width="16" height="16" rx="8" fill="#EF4444"/>
  <text x="1356" y="1373" text-anchor="middle" font-size="9" font-weight="700" fill="white">5</text>
  <text x="1440" y="1383" font-size="11" fill="#6B7280">⚙ Settings</text>

  <!-- ===== PENDING EARNINGS CARD ===== -->
  <rect x="950" y="1410" width="780" height="195" rx="10" fill="white" stroke="#F59E0B" stroke-width="1" stroke-dasharray="4"/>
  <text x="980" y="1438" font-size="14" font-weight="700" fill="#111827">⏳ Pending Earnings</text>
  <rect x="1140" y="1424" width="22" height="18" rx="9" fill="#FFFBEB"/>
  <text x="1151" y="1437" text-anchor="middle" font-size="10" font-weight="600" fill="#D97706">3</text>
  <text x="980" y="1456" font-size="11" fill="#6B7280">Approve earnings after confirming the business has paid</text>

  <!-- Approve All button -->
  <rect x="1600" y="1424" width="110" height="26" rx="6" fill="url(#blueGrad)"/>
  <text x="1655" y="1442" text-anchor="middle" font-size="10" font-weight="600" fill="white">Approve All (3)</text>

  <!-- User row 1 -->
  <rect x="970" y="1470" width="740" height="52" rx="8" fill="white" stroke="#E5E7EB"/>
  <text x="990" y="1492" font-size="12" font-weight="600" fill="#111827">Sofia Martinez</text>
  <rect x="1100" y="1480" width="56" height="18" rx="9" fill="#F9FAFB" stroke="#E5E7EB"/>
  <text x="1128" y="1493" text-anchor="middle" font-size="9" fill="#4B5563">2 earnings</text>
  <text x="990" y="1510" font-size="10" fill="#9CA3AF">
    <tspan fill="#D97706">●</tspan> $30.00 — NoxFit (Promoter)
    <tspan dx="10" fill="#D97706">●</tspan> $15.00 — ELEVATE AI (Reward)
  </text>
  <text x="1580" y="1495" text-anchor="end" font-size="15" font-weight="700" fill="#111827">$45.00</text>
  <rect x="1600" y="1480" width="70" height="24" rx="6" fill="url(#blueGrad)"/>
  <text x="1635" y="1496" text-anchor="middle" font-size="10" font-weight="600" fill="white">Approve</text>

  <!-- User row 2 -->
  <rect x="970" y="1530" width="740" height="52" rx="8" fill="white" stroke="#E5E7EB"/>
  <text x="990" y="1552" font-size="12" font-weight="600" fill="#111827">Carlos Vega</text>
  <rect x="1090" y="1540" width="56" height="18" rx="9" fill="#F9FAFB" stroke="#E5E7EB"/>
  <text x="1118" y="1553" text-anchor="middle" font-size="9" fill="#4B5563">1 earning</text>
  <text x="990" y="1570" font-size="10" fill="#9CA3AF">
    <tspan fill="#D97706">●</tspan> $60.00 — Meditations Co (Promoter)
  </text>
  <text x="1580" y="1555" text-anchor="end" font-size="15" font-weight="700" fill="#111827">$60.00</text>
  <rect x="1600" y="1540" width="70" height="24" rx="6" fill="url(#blueGrad)"/>
  <text x="1635" y="1556" text-anchor="middle" font-size="10" font-weight="600" fill="white">Approve</text>

  <!-- Divider -->
  <line x1="950" y1="1615" x2="1730" y2="1615" stroke="#E5E7EB" stroke-width="1"/>

  <!-- ===== CASHOUT REQUESTS SECTION ===== -->
  <text x="980" y="1645" font-size="14" font-weight="700" fill="#111827">User Payouts</text>
  <text x="980" y="1663" font-size="11" fill="#6B7280">Review and process user cashout requests</text>

  <!-- Payout request row 1 - REQUESTED -->
  <rect x="950" y="1675" width="780" height="70" rx="10" fill="white" stroke="#E5E7EB"/>
  <text x="975" y="1698" font-size="13" font-weight="600" fill="#111827">Maria Garcia</text>
  <text x="1100" y="1698" font-size="11" fill="#6B7280">maria@example.com</text>
  <text x="975" y="1716" font-size="10" fill="#6B7280">Mar 23, 2026</text>
  <rect x="1080" y="1704" width="130" height="18" rx="9" fill="#F0FDF4" stroke="#22C55E" stroke-width="0.5"/>
  <text x="1095" y="1717" font-size="9" fill="#16A34A">✓ Chase Bank ••4521</text>
  <text x="1600" y="1698" text-anchor="end" font-size="18" font-weight="700" fill="#111827">$75.00</text>
  <rect x="1620" y="1684" width="80" height="20" rx="10" fill="#FFFBEB"/>
  <text x="1660" y="1698" text-anchor="middle" font-size="10" font-weight="600" fill="#D97706">REQUESTED</text>
  <rect x="1600" y="1716" width="55" height="22" rx="6" fill="url(#blueGrad)"/>
  <text x="1627" y="1731" text-anchor="middle" font-size="9" font-weight="600" fill="white">Mark Paid</text>
  <rect x="1662" y="1716" width="48" height="22" rx="6" fill="white" stroke="#EF4444" stroke-width="0.5"/>
  <text x="1686" y="1731" text-anchor="middle" font-size="9" fill="#EF4444">Reject</text>

  <!-- Payout row 2 - COMPLETED -->
  <rect x="950" y="1755" width="780" height="55" rx="10" fill="white" stroke="#E5E7EB" opacity="0.7"/>
  <text x="975" y="1780" font-size="13" font-weight="600" fill="#111827">Carlos Vega</text>
  <text x="1100" y="1780" font-size="11" fill="#6B7280">carlos@example.com</text>
  <text x="975" y="1798" font-size="10" fill="#6B7280">Mar 10, 2026 — Paid: Mar 12 — Transfer</text>
  <text x="1600" y="1780" text-anchor="end" font-size="18" font-weight="700" fill="#111827">$50.00</text>
  <rect x="1620" y="1766" width="80" height="20" rx="10" fill="#F0FDF4"/>
  <text x="1660" y="1780" text-anchor="middle" font-size="10" font-weight="600" fill="#16A34A">COMPLETED</text>

  <!-- Payout row 3 - REJECTED -->
  <rect x="950" y="1820" width="780" height="55" rx="10" fill="white" stroke="#E5E7EB" opacity="0.5"/>
  <text x="975" y="1845" font-size="13" font-weight="600" fill="#111827">Ana Lopez</text>
  <text x="1100" y="1845" font-size="11" fill="#6B7280">ana@example.com</text>
  <text x="975" y="1863" font-size="10" fill="#6B7280">Mar 8, 2026 — Rejected: Invalid bank info</text>
  <text x="1600" y="1845" text-anchor="end" font-size="18" font-weight="700" fill="#111827">$55.00</text>
  <rect x="1620" y="1831" width="80" height="20" rx="10" fill="#FEF2F2"/>
  <text x="1660" y="1845" text-anchor="middle" font-size="10" font-weight="600" fill="#EF4444">REJECTED</text>


  <!-- ============================================= -->
  <!-- FRAME 7: FULL FLOW DIAGRAM -->
  <!-- ============================================= -->
  <rect x="40" y="2020" width="1720" height="740" rx="16" fill="white" stroke="#E5E7EB" filter="url(#shadow)"/>
  <text x="80" y="2060" font-size="20" font-weight="700" fill="#111827">7. Complete Payment Flow — End to End</text>
  <text x="80" y="2082" font-size="13" fill="#6B7280">From customer visit to money in user's bank account</text>

  <!-- Step 1: Customer Visits -->
  <rect x="100" y="2110" width="200" height="80" rx="12" fill="url(#blueGrad)" filter="url(#shadow)"/>
  <text x="200" y="2140" text-anchor="middle" font-size="14" font-weight="700" fill="white">1. Customer Visit</text>
  <text x="200" y="2160" text-anchor="middle" font-size="11" fill="rgba(255,255,255,0.8)">Customer visits business</text>
  <text x="200" y="2176" text-anchor="middle" font-size="11" fill="rgba(255,255,255,0.8)">via referral link</text>

  <!-- Arrow -->
  <line x1="300" y1="2150" x2="360" y2="2150" stroke="#3B82F6" stroke-width="2"/>
  <polygon points="358,2145 368,2150 358,2155" fill="#3B82F6"/>

  <!-- Step 2: Visit Converted -->
  <rect x="370" y="2110" width="200" height="80" rx="12" fill="url(#greenGrad)" filter="url(#shadow)"/>
  <text x="470" y="2140" text-anchor="middle" font-size="14" font-weight="700" fill="white">2. Visit Converted</text>
  <text x="470" y="2160" text-anchor="middle" font-size="11" fill="rgba(255,255,255,0.8)">Receipt uploaded &amp;</text>
  <text x="470" y="2176" text-anchor="middle" font-size="11" fill="rgba(255,255,255,0.8)">visit confirmed</text>

  <!-- Arrow down to two paths -->
  <line x1="470" y1="2190" x2="470" y2="2220" stroke="#22C55E" stroke-width="2"/>

  <!-- Split -->
  <text x="470" y="2240" text-anchor="middle" font-size="12" font-weight="700" fill="#111827">Creates automatically:</text>

  <!-- Path A: Charge -->
  <line x1="370" y1="2250" x2="280" y2="2280" stroke="#EF4444" stroke-width="1.5"/>
  <rect x="100" y="2280" width="360" height="180" rx="12" fill="white" stroke="#EF4444" stroke-width="1.5" filter="url(#shadow)"/>
  <rect x="100" y="2280" width="360" height="30" rx="12 12 0 0" fill="#FEF2F2"/>
  <text x="280" y="2300" text-anchor="middle" font-size="13" font-weight="700" fill="#EF4444">CHARGE (Business owes Platform)</text>

  <text x="125" y="2330" font-size="12" fill="#4B5563">• Total: $100.00</text>
  <text x="125" y="2350" font-size="12" fill="#4B5563">• Platform: $40.00 (40%)</text>
  <text x="125" y="2370" font-size="12" fill="#4B5563">• Promoter: $30.00 (30%)</text>
  <text x="125" y="2390" font-size="12" fill="#4B5563">• Consumer: $30.00 (30%)</text>
  <text x="125" y="2420" font-size="11" font-weight="600" fill="#EF4444">Status: OWED → PARTIAL → PAID</text>
  <text x="125" y="2440" font-size="11" fill="#6B7280">Admin marks paid via admin dashboard</text>

  <!-- Path B: Earnings -->
  <line x1="570" y1="2250" x2="660" y2="2280" stroke="#22C55E" stroke-width="1.5"/>
  <rect x="530" y="2280" width="360" height="180" rx="12" fill="white" stroke="#22C55E" stroke-width="1.5" filter="url(#shadow)"/>
  <rect x="530" y="2280" width="360" height="30" rx="12 12 0 0" fill="#F0FDF4"/>
  <text x="710" y="2300" text-anchor="middle" font-size="13" font-weight="700" fill="#16A34A">EARNINGS (Platform owes Users)</text>

  <text x="555" y="2330" font-size="12" fill="#4B5563">• Promoter Earning: $30.00</text>
  <text x="570" y="2350" font-size="11" fill="#6B7280">Type: REFERRER_COMMISSION</text>
  <text x="555" y="2375" font-size="12" fill="#4B5563">• Consumer Earning: $30.00</text>
  <text x="570" y="2395" font-size="11" fill="#6B7280">Type: CONSUMER_REWARD (cash only)</text>
  <text x="555" y="2420" font-size="11" font-weight="600" fill="#22C55E">Status: PENDING → APPROVED → PAID</text>
  <text x="555" y="2440" font-size="11" fill="#6B7280">Admin approves after business pays</text>

  <!-- Earnings → Payout -->
  <line x1="890" y1="2370" x2="960" y2="2370" stroke="#3B82F6" stroke-width="2"/>
  <polygon points="958,2365 968,2370 958,2375" fill="#3B82F6"/>

  <!-- Payout Request -->
  <rect x="970" y="2280" width="360" height="180" rx="12" fill="white" stroke="#3B82F6" stroke-width="1.5" filter="url(#shadow)"/>
  <rect x="970" y="2280" width="360" height="30" rx="12 12 0 0" fill="#EFF6FF"/>
  <text x="1150" y="2300" text-anchor="middle" font-size="13" font-weight="700" fill="#1D4ED8">PAYOUT REQUEST</text>

  <text x="995" y="2330" font-size="12" fill="#4B5563">• User requests when $50+ available</text>
  <text x="995" y="2350" font-size="12" fill="#4B5563">• Must have bank info configured</text>
  <text x="995" y="2370" font-size="12" fill="#4B5563">• One pending request at a time</text>
  <text x="995" y="2395" font-size="11" font-weight="600" fill="#1D4ED8">Admin reviews in Payouts tab:</text>
  <text x="1010" y="2415" font-size="11" fill="#16A34A">✓ Complete → marks earnings PAID</text>
  <text x="1010" y="2435" font-size="11" fill="#EF4444">✗ Reject → earnings stay available</text>
  <text x="1010" y="2455" font-size="10" fill="#6B7280">(reject only if fraud suspected)</text>

  <!-- Final: Money arrives -->
  <line x1="1330" y1="2370" x2="1400" y2="2370" stroke="#22C55E" stroke-width="2"/>
  <polygon points="1398,2365 1408,2370 1398,2375" fill="#22C55E"/>

  <rect x="1410" y="2320" width="300" height="100" rx="16" fill="url(#greenGrad)" filter="url(#shadowLg)"/>
  <text x="1560" y="2358" text-anchor="middle" font-size="18" font-weight="700" fill="white">💰 Money Sent</text>
  <text x="1560" y="2382" text-anchor="middle" font-size="13" fill="rgba(255,255,255,0.9)">Via Transfer / Zelle / Cash / Check</text>
  <text x="1560" y="2402" text-anchor="middle" font-size="12" fill="rgba(255,255,255,0.7)">User receives payment</text>

  <!-- Key/Legend -->
  <rect x="1410" y="2460" width="300" height="6" rx="3" fill="url(#blueGrad)"/>

  <rect x="100" y="2500" width="1600" height="210" rx="12" fill="#F9FAFB" stroke="#E5E7EB"/>
  <text x="140" y="2535" font-size="16" font-weight="700" fill="#111827">Key Rules &amp; Constraints</text>

  <text x="140" y="2565" font-size="12" fill="#4B5563">• <tspan font-weight="600">Minimum Cashout:</tspan> $50 USD — users cannot request cashout below this threshold</text>
  <text x="140" y="2590" font-size="12" fill="#4B5563">• <tspan font-weight="600">One Request at a Time:</tspan> Users cannot submit a new cashout while one is pending/processing</text>
  <text x="140" y="2615" font-size="12" fill="#4B5563">• <tspan font-weight="600">Bank Info Required:</tspan> Users must save bank information before requesting cashout</text>
  <text x="140" y="2640" font-size="12" fill="#4B5563">• <tspan font-weight="600">Rejection:</tspan> When admin rejects a payout, earnings stay APPROVED — user can request again</text>
  <text x="140" y="2665" font-size="12" fill="#4B5563">• <tspan font-weight="600">Completion:</tspan> When admin completes a payout, all associated earnings are marked as PAID atomically</text>
  <text x="140" y="2690" font-size="12" fill="#4B5563">• <tspan font-weight="600">Void Payments:</tspan> Business charge payments can be voided — automatically recalculates charge status</text>

  <!-- Footer -->
  <text x="900" y="2770" text-anchor="middle" font-size="14" font-weight="600" fill="#3B82F6">Eliv — SMART AI REFERRALS</text>
  <text x="900" y="2790" text-anchor="middle" font-size="11" fill="#9CA3AF">Payment Flow Documentation · March 2026</text>
</svg>
